<svg width="9" height="8" viewBox="0 0 9 8" fill="none" xmlns="http://www.w3.org/2000/svg">
<path d="M8.42474 0.355061C8.16274 0.0930654 7.73799 0.0930789 7.476 0.355061L4.72467 3.10639L1.97335 0.355069C1.71136 0.093087 1.28661 0.0930736 1.02462 0.355069C0.762624 0.617065 0.762632 1.04182 1.02462 1.30381L3.77594 4.05512L1.02463 6.80643C0.762643 7.06842 0.762634 7.49317 1.02463 7.75517C1.28662 8.01717 1.71138 8.01715 1.97336 7.75517L4.72467 5.00385L7.476 7.75519C7.73798 8.01717 8.16274 8.01717 8.42473 7.75519C8.68672 7.49319 8.68671 7.06842 8.42473 6.80644L5.6734 4.05512L8.42474 1.3038C8.68672 1.04182 8.68673 0.617056 8.42474 0.355061Z" fill="black"/>
</svg>
