<svg width="14" height="13" viewBox="0 0 14 13" fill="none" xmlns="http://www.w3.org/2000/svg">
<g clip-path="url(#clip0_1019_4692)">
<path d="M7.0743 0C4.49634 0 2.39844 2.11245 2.39844 4.70963C2.39844 8.39992 6.63477 12.2102 6.81505 12.3702C6.88934 12.4362 6.98182 12.469 7.0743 12.469C7.16678 12.469 7.25925 12.4362 7.33355 12.3708C7.51383 12.2102 11.7502 8.39992 11.7502 4.70963C11.7502 2.11245 9.65226 0 7.0743 0ZM7.0743 7.27356C5.64193 7.27356 4.4766 6.10823 4.4766 4.67586C4.4766 3.24349 5.64193 2.07816 7.0743 2.07816C8.50667 2.07816 9.672 3.24349 9.672 4.67586C9.672 6.10823 8.50667 7.27356 7.0743 7.27356Z" fill="#2E3191"/>
</g>
<defs>
<clipPath id="clip0_1019_4692">
<rect width="12.469" height="12.469" fill="white" transform="translate(0.839844)"/>
</clipPath>
</defs>
</svg>
