<svg width="17" height="14" viewBox="0 0 17 14" fill="none" xmlns="http://www.w3.org/2000/svg">
<path d="M7.49361 2.33333C8.99233 2.33333 10.4693 2.33333 11.9536 2.33333C12.2649 2.33333 12.5835 2.34063 12.8876 2.39896C13.8722 2.59583 14.589 3.43437 14.6469 4.44792C14.6687 4.76146 14.6469 5.075 14.6469 5.44687C15.132 5.44687 15.5882 5.44687 16.0443 5.44687C16.8045 5.44687 17.1231 5.84062 16.9493 6.59167C16.5366 8.42917 16.1167 10.2594 15.6968 12.0896C15.4216 13.2927 14.5311 13.9927 13.3003 13.9927C9.69463 13.9927 6.08901 13.9927 2.48339 13.9927C0.926746 14 0 13.0667 0 11.5135C0 8.51667 0 5.5125 0 2.51562C0 0.926042 0.919506 0 2.49787 0C3.33049 0 4.16312 0 4.99574 0C6.14693 0.00729167 6.99404 0.648958 7.31985 1.76458C7.37777 1.94687 7.43569 2.12917 7.49361 2.33333ZM4.8075 12.4469C5.70528 12.4469 6.54514 12.4469 7.38501 12.4469C9.36158 12.4469 11.3454 12.4469 13.322 12.4469C13.8722 12.4469 14.1039 12.2573 14.2198 11.7396C14.3863 11.0031 14.5528 10.274 14.7193 9.5375C14.9076 8.69896 15.0886 7.86771 15.2841 7.00729C12.178 7.00729 9.11542 7.00729 6.02385 7.00729C5.6184 8.80833 5.22019 10.6094 4.8075 12.4469Z" fill="#2E3191"/>
</svg>
