<svg width="24" height="19" viewBox="0 0 24 19" fill="none" xmlns="http://www.w3.org/2000/svg">
<path d="M10.5368 3.08855C12.5418 3.08855 14.5178 3.08855 16.5035 3.08855C16.92 3.08855 17.3461 3.0982 17.753 3.17541C19.0703 3.43601 20.0292 4.54596 20.1067 5.88755C20.1357 6.30257 20.1067 6.71759 20.1067 7.20983C20.7557 7.20983 21.3659 7.20983 21.9761 7.20983C22.9931 7.20983 23.4193 7.73102 23.1869 8.72515C22.6348 11.1574 22.073 13.58 21.5112 16.0025C21.1431 17.5951 19.9517 18.5216 18.3051 18.5216C13.4814 18.5216 8.65772 18.5216 3.83405 18.5216C1.75154 18.5313 0.511719 17.2959 0.511719 15.2401C0.511719 11.2732 0.511719 7.2967 0.511719 3.32984C0.511719 1.22577 1.74185 0 3.85342 0C4.96732 0 6.08122 0 7.19512 0C8.73521 0.00965171 9.86848 0.859003 10.3044 2.33571C10.3818 2.57701 10.4593 2.8183 10.5368 3.08855ZM6.94328 16.4755C8.14436 16.4755 9.26795 16.4755 10.3915 16.4755C13.0358 16.4755 15.6898 16.4755 18.3341 16.4755C19.0703 16.4755 19.3802 16.2245 19.5352 15.5393C19.758 14.5644 19.9808 13.5993 20.2035 12.6244C20.4554 11.5145 20.6975 10.4142 20.9591 9.2753C16.8037 9.2753 12.7065 9.2753 8.57055 9.2753C8.02813 11.6593 7.49539 14.0432 6.94328 16.4755Z" fill="#2E3191"/>
</svg>
