<svg width="20" height="20" viewBox="0 0 20 20" fill="none" xmlns="http://www.w3.org/2000/svg">
<path d="M0.473815 19.9149C0.595268 19.9149 0.716563 19.8687 0.809118 19.7757L6.26176 14.323C7.71206 15.6158 9.62179 16.4035 11.7128 16.4035C16.2351 16.4036 19.9145 12.7243 19.9145 8.20173C19.9145 3.67899 16.2349 0 11.7128 0C7.19045 0 3.51105 3.6796 3.51105 8.20173C3.51105 10.2928 4.29867 12.2025 5.59148 13.6527L0.138837 19.1054C-0.046279 19.2903 -0.046279 19.5907 0.138837 19.7757C0.231234 19.8685 0.352687 19.9147 0.47414 19.9147L0.473815 19.9149ZM11.7128 0.948108C15.7124 0.948108 18.9663 4.20206 18.9663 8.20164C18.9663 12.2011 15.7124 15.4552 11.7128 15.4552C7.71328 15.4552 4.45925 12.2015 4.45925 8.20164C4.45925 4.20181 7.71291 0.948108 11.7128 0.948108Z" fill="black"/>
</svg>
