<svg width="90" height="62" viewBox="0 0 90 62" fill="none" xmlns="http://www.w3.org/2000/svg">
<path fill-rule="evenodd" clip-rule="evenodd" d="M86.1976 6.30136C83.7712 1.98518 81.1379 1.19127 75.7762 0.889364C70.4201 0.525955 56.9516 0.375 45.2834 0.375C33.5928 0.375 20.1187 0.525955 14.7682 0.883773C9.41769 1.19127 6.77879 1.97959 4.32997 6.30136C1.83083 10.612 0.544922 18.0367 0.544922 31.1082V31.153C0.544922 44.1686 1.83083 51.6492 4.32997 55.9151C6.77879 60.2313 9.4121 61.014 14.7626 61.3774C20.1187 61.6905 33.5928 61.875 45.2834 61.875C56.9516 61.875 70.4201 61.6905 75.7818 61.383C81.1435 61.0196 83.7768 60.2369 86.2032 55.9207C88.7247 51.6548 89.9995 44.1742 89.9995 31.1585V31.1306V31.1138C89.9995 18.0367 88.7247 10.612 86.1976 6.30136Z" fill="#F44336"/>
<path fill-rule="evenodd" clip-rule="evenodd" d="M34.0898 47.898V14.3525L62.0444 31.1253L34.0898 47.898Z" fill="#FAFAFA"/>
</svg>
