<svg width="14" height="14" viewBox="0 0 14 14" fill="none" xmlns="http://www.w3.org/2000/svg">
<g opacity="0.9" clip-path="url(#clip0_1138_1333)">
<path d="M7.31328 1.34607C9.03664 1.34607 9.24072 1.35363 9.91848 1.38387C10.5484 1.41158 10.8885 1.5174 11.1153 1.60559C11.4151 1.72148 11.6318 1.86258 11.856 2.08682C12.0828 2.31357 12.2213 2.52773 12.3372 2.82756C12.4254 3.05432 12.5312 3.39697 12.5589 4.02434C12.5892 4.70461 12.5967 4.90869 12.5967 6.62953C12.5967 8.35289 12.5892 8.55697 12.5589 9.23473C12.5312 9.86461 12.4254 10.2047 12.3372 10.4315C12.2213 10.7313 12.0802 10.948 11.856 11.1722C11.6292 11.399 11.4151 11.5376 11.1153 11.6535C10.8885 11.7417 10.5458 11.8475 9.91848 11.8752C9.2382 11.9054 9.03412 11.913 7.31328 11.913C5.58992 11.913 5.38584 11.9054 4.70809 11.8752C4.0782 11.8475 3.73807 11.7417 3.51131 11.6535C3.21148 11.5376 2.9948 11.3965 2.77057 11.1722C2.54381 10.9455 2.40523 10.7313 2.28934 10.4315C2.20115 10.2047 2.09533 9.86209 2.06762 9.23473C2.03738 8.55445 2.02982 8.35037 2.02982 6.62953C2.02982 4.90617 2.03738 4.70209 2.06762 4.02434C2.09533 3.39445 2.20115 3.05432 2.28934 2.82756C2.40523 2.52773 2.54633 2.31105 2.77057 2.08682C2.99732 1.86006 3.21148 1.72148 3.51131 1.60559C3.73807 1.5174 4.08072 1.41158 4.70809 1.38387C5.38584 1.35363 5.58992 1.34607 7.31328 1.34607ZM7.31328 0.18457C5.56221 0.18457 5.34301 0.192129 4.65518 0.222363C3.96986 0.252598 3.49871 0.363457 3.09055 0.522188C2.66475 0.688477 2.30445 0.907676 1.94668 1.26797C1.58639 1.62574 1.36719 1.98604 1.2009 2.40932C1.04217 2.82 0.931309 3.28863 0.901074 3.97395C0.87084 4.6643 0.863281 4.8835 0.863281 6.63457C0.863281 8.38564 0.87084 8.60484 0.901074 9.29268C0.931309 9.97799 1.04217 10.4491 1.2009 10.8573C1.36719 11.2831 1.58639 11.6434 1.94668 12.0012C2.30445 12.3589 2.66475 12.5807 3.08803 12.7444C3.49871 12.9032 3.96734 13.014 4.65266 13.0443C5.34049 13.0745 5.55969 13.0821 7.31076 13.0821C9.06184 13.0821 9.28104 13.0745 9.96887 13.0443C10.6542 13.014 11.1253 12.9032 11.5335 12.7444C11.9568 12.5807 12.3171 12.3589 12.6748 12.0012C13.0326 11.6434 13.2543 11.2831 13.4181 10.8598C13.5768 10.4491 13.6877 9.98051 13.7179 9.2952C13.7482 8.60736 13.7557 8.38816 13.7557 6.63709C13.7557 4.88602 13.7482 4.66682 13.7179 3.97898C13.6877 3.29367 13.5768 2.82252 13.4181 2.41436C13.2594 1.98604 13.0402 1.62574 12.6799 1.26797C12.3221 0.910195 11.9618 0.688477 11.5385 0.524707C11.1279 0.365977 10.6592 0.255117 9.97391 0.224883C9.28356 0.192129 9.06436 0.18457 7.31328 0.18457Z" fill="#931E5A"/>
<path d="M7.31318 3.32129C5.484 3.32129 4 4.80529 4 6.63447C4 8.46365 5.484 9.94766 7.31318 9.94766C9.14236 9.94766 10.6264 8.46365 10.6264 6.63447C10.6264 4.80529 9.14236 3.32129 7.31318 3.32129ZM7.31318 8.78363C6.12648 8.78363 5.16402 7.82117 5.16402 6.63447C5.16402 5.44777 6.12648 4.48531 7.31318 4.48531C8.49988 4.48531 9.46234 5.44777 9.46234 6.63447C9.46234 7.82117 8.49988 8.78363 7.31318 8.78363Z" fill="#931E5A"/>
<path d="M11.5314 3.19049C11.5314 3.61881 11.1837 3.96399 10.7579 3.96399C10.3296 3.96399 9.98438 3.61629 9.98438 3.19049C9.98438 2.76217 10.3321 2.41699 10.7579 2.41699C11.1837 2.41699 11.5314 2.76469 11.5314 3.19049Z" fill="#931E5A"/>
</g>
<defs>
<clipPath id="clip0_1138_1333">
<rect width="12.9" height="12.9" fill="white" transform="translate(0.863281 0.18457)"/>
</clipPath>
</defs>
</svg>
