<svg width="14" height="14" viewBox="0 0 14 14" fill="none" xmlns="http://www.w3.org/2000/svg">
<g clip-path="url(#clip0_1138_1335)">
<path d="M12.8592 0.18457H1.86645C1.33986 0.18457 0.914062 0.600293 0.914062 1.11428V12.1523C0.914062 12.6663 1.33986 13.0846 1.86645 13.0846H12.8592C13.3857 13.0846 13.8141 12.6663 13.8141 12.1549V1.11428C13.8141 0.600293 13.3857 0.18457 12.8592 0.18457ZM4.74123 11.1773H2.82639V5.01955H4.74123V11.1773ZM3.78381 4.18055C3.16904 4.18055 2.6727 3.6842 2.6727 3.07195C2.6727 2.45971 3.16904 1.96336 3.78381 1.96336C4.39605 1.96336 4.8924 2.45971 4.8924 3.07195C4.8924 3.68168 4.39605 4.18055 3.78381 4.18055ZM11.9068 11.1773H9.99445V8.18408C9.99445 7.47106 9.98186 6.55143 8.99924 6.55143C8.00402 6.55143 7.85285 7.32996 7.85285 8.13369V11.1773H5.94305V5.01955H7.77727V5.86107H7.80246C8.05693 5.37732 8.68178 4.86586 9.61149 4.86586C11.549 4.86586 11.9068 6.14074 11.9068 7.79859V11.1773Z" fill="#931E5A"/>
</g>
<defs>
<clipPath id="clip0_1138_1335">
<rect width="12.9" height="12.9" fill="white" transform="translate(0.914062 0.18457)"/>
</clipPath>
</defs>
</svg>
