<svg width="27" height="27" viewBox="0 0 27 27" fill="none" xmlns="http://www.w3.org/2000/svg">
<path d="M25.5696 6.54337C24.9081 7.49237 24.0711 8.33737 23.0991 9.01337C23.1126 9.20837 23.1126 9.41637 23.1126 9.62437C23.1126 15.9294 18.1311 23.1964 9.03214 23.1964C6.23764 23.1964 3.63214 22.4034 1.43164 21.0514C1.82314 21.0904 2.21464 21.1164 2.61964 21.1164C4.94164 21.1164 7.07464 20.3494 8.76214 19.0754C7.72985 19.0548 6.73001 18.7243 5.90227 18.13C5.07452 17.5357 4.46021 16.7072 4.14514 15.7604C4.44214 15.8124 4.75264 15.8514 5.07664 15.8514C5.52214 15.8514 5.96764 15.7864 6.37264 15.6824C5.25295 15.461 4.24677 14.8747 3.52376 14.0221C2.80075 13.1696 2.40514 12.1031 2.40364 11.0024V10.9504C3.07864 11.3014 3.83464 11.5224 4.64464 11.5484C3.96667 11.1104 3.41122 10.5184 3.02742 9.82455C2.64361 9.13072 2.44328 8.3565 2.44414 7.57037C2.44414 6.69937 2.68714 5.88037 3.11914 5.17837C5.56264 8.06437 9.20764 9.96237 13.3251 10.1574C13.2441 9.80637 13.1901 9.44237 13.1901 9.06537C13.1937 7.80228 13.7173 6.59209 14.646 5.70017C15.5748 4.80824 16.833 4.30737 18.1446 4.30737C19.5756 4.30737 20.8581 4.87937 21.7626 5.81537C22.8831 5.59437 23.9496 5.20437 24.9081 4.65837C24.5301 5.76337 23.7471 6.69937 22.7211 7.28437C23.7047 7.18084 24.6657 6.93086 25.5696 6.54337Z" fill="#164699"/>
</svg>
